<svg width="100" height="100" viewBox="0 0 100 100" fill="none" xmlns="http://www.w3.org/2000/svg">
  <!-- Background Circle -->
  <circle cx="50" cy="50" r="48" fill="#F0F4F8" />
  
  <!-- Neck -->
  <rect x="42" y="70" width="16" height="15" fill="#E5C1A7" />
  
  <!-- Face Shape -->
  <path d="M30 45C30 33.9543 38.9543 25 50 25C61.0457 25 70 33.9543 70 45V55C70 66.0457 61.0457 75 50 75C38.9543 75 30 66.0457 30 55V45Z" fill="#F3D1B9" />
  
  <!-- Ears -->
  <circle cx="28" cy="50" r="5" fill="#E5C1A7" />
  <circle cx="72" cy="50" r="5" fill="#E5C1A7" />
  
  <!-- Hair (Short Sports Cut) -->
  <path d="M30 45C30 33.9543 38.9543 25 50 25C61.0457 25 70 33.9543 70 45H72C72 30 62 20 50 20C38 20 28 30 28 45H30Z" fill="#2D3436" />
  <path d="M30 40C30 30 40 22 50 22C60 22 70 30 70 40H30Z" fill="#2D3436" />
  
  <!-- Eyes (Gentle, Kind) -->
  <path d="M40 50C40 48.5 41.5 48 43 48C44.5 48 46 48.5 46 50" stroke="#2D3436" stroke-width="2" stroke-linecap="round" />
  <path d="M54 50C54 48.5 55.5 48 57 48C58.5 48 60 48.5 60 50" stroke="#2D3436" stroke-width="2" stroke-linecap="round" />
  
  <!-- Nose -->
  <path d="M50 55V58" stroke="#E5C1A7" stroke-width="2" stroke-linecap="round" />
  
  <!-- Mouth (Subtle Smile) -->
  <path d="M42 63C45 66 55 66 58 63" stroke="#2D3436" stroke-width="2" stroke-linecap="round" />
</svg>
